# xmcd
#
# Track frame offsets:
#	150
#	10238
#	23701
#	38352
#	52004
#	65261
#	76132
#	88191
#	101249
#	111930
#	126392
#	137479
#	151941
#	166403
#	180460
#	190143
#	202013
#	215881
#	228561
#	240026
#	251113
#	263577
#
# Disc length: 3676 seconds
#
# Revision: 2
# Processed by: cddbd v1.4b41PL1 Copyright (c) Steve Scherf et al.
# Submitted via: audiograbber 1.80
#
DISCID=280e5a16
DTITLE=Various Country Artist - Contemporary Country - The Early '70s - Hot Hit
DTITLE=s
DYEAR=1900
DGENRE=
TTITLE0=Johnny Paycheck - Mr. Lovemaker
TTITLE1=George Jones and Tammy Wynette - We're Gonna Hold On
TTITLE2=Mel Street - Borrowed Angel
TTITLE3=Waylon Jennings - Good Hearted Woman
TTITLE4=Johnny Cash - Man In Black
TTITLE5=Charley Pride - I'm Just Me
TTITLE6=Loretta Lynn - One's On The Way
TTITLE7=The Statler Brothers - Do You Remember These
TTITLE8=Johnny Rodriquez - You Always Come Back (To Hurting Me)
TTITLE9=Conway Twitty - Fifteen Years Ago
TTITLE10=Jerry Lee Lewis - Once More With Feeling
TTITLE11=Red Simpson - I'm A Truck
TTITLE12=Buck Owens - Big In Vegas
TTITLE13=Dave Dudley - The Pool Shark
TTITLE14=George Jones - We Can Make It
TTITLE15=Sonny James - It's Just A Matter Of Time
TTITLE16=Porter Wagoner and Dolly Parton - Daddy Was An Old Time Preacher Man
TTITLE17=Bobby Bare - Come Sundown
TTITLE18=Connie Smith - Just One Time
TTITLE19=Freddie Hart - Got The All Overs For You (All Over Me)
TTITLE20=Jerry Wallace - If You Leave Me Tonight I'll Cry
TTITLE21=Hank Williams Jr. - Eleven Roses
EXTD=
EXTT0=Paycheck, Johnny
EXTT1=Jones, George and Wynette, Tammy
EXTT2=Street, Mel
EXTT3=Jennings, Waylon
EXTT4=Cash, Johnny
EXTT5=Pride, Charley
EXTT6=Lynn, Loretta
EXTT7=The Statler Brothers
EXTT8=Rodriquez, Johnny
EXTT9=Twitty, Conway
EXTT10=Lewis, Jerry Lee
EXTT11=Simpson, Red
EXTT12=Owens, Buck
EXTT13=Dudley, Dave
EXTT14=Jones, George
EXTT15=James, Sonny
EXTT16=Wagoner, Porter and Parton, Dolly
EXTT17=Bare, Bobby
EXTT18=Smith, Connie
EXTT19=Hart, Freddie
EXTT20=Wallace, Jerry
EXTT21=Williams Jr., Hank
PLAYORDER=
